<svg width="25" height="25" viewBox="0 0 25 25" fill="none" xmlns="http://www.w3.org/2000/svg">
<path d="M6.38281 24.5469H3.50781C3.04736 24.5471 2.59139 24.4566 2.16591 24.2806C1.74043 24.1046 1.35379 23.8465 1.02806 23.521C0.702331 23.1956 0.44389 22.8092 0.267495 22.3839C0.0911001 21.9585 0.000205145 21.5026 0 21.0422L0 17.9047H1.75312V21.0422C1.75292 21.2725 1.79811 21.5007 1.88612 21.7136C1.97414 21.9264 2.10324 22.1199 2.26605 22.2828C2.42886 22.4458 2.6222 22.5751 2.835 22.6633C3.0478 22.7515 3.27589 22.7969 3.50625 22.7969H6.38125V24.55L6.38281 24.5469ZM21.0406 24.5469H18.2188V22.7969H21.0406C21.2711 22.7971 21.4994 22.7518 21.7124 22.6637C21.9253 22.5756 22.1189 22.4464 22.2818 22.2834C22.4448 22.1204 22.5741 21.9269 22.6622 21.7139C22.7503 21.5009 22.7955 21.2727 22.7953 21.0422V17.9047H24.5484V21.0422C24.5486 21.5029 24.4581 21.9591 24.2818 22.3848C24.1056 22.8105 23.8473 23.1973 23.5215 23.523C23.1957 23.8488 22.8089 24.1072 22.3833 24.2834C21.9576 24.4596 21.5013 24.5502 21.0406 24.55V24.5469ZM24.5484 6.575H22.7953V3.50625C22.7953 3.2759 22.7499 3.0478 22.6617 2.835C22.5735 2.6222 22.4442 2.42886 22.2813 2.26605C22.1183 2.10324 21.9249 1.97414 21.712 1.88613C21.4991 1.79811 21.271 1.75292 21.0406 1.75313H18.2188V3.48183e-07H21.0406C21.5012 -0.000204901 21.9573 0.0903355 22.3829 0.266449C22.8085 0.442563 23.1952 0.700799 23.5209 1.0264C23.8467 1.35201 24.1051 1.73861 24.2814 2.16411C24.4577 2.58961 24.5484 3.04567 24.5484 3.50625V6.575ZM1.75312 6.575H0V3.50625C0 2.57633 0.369407 1.68451 1.02696 1.02696C1.68451 0.369408 2.57633 3.48183e-07 3.50625 3.48183e-07H6.38125V1.75313H3.50625C3.04129 1.75313 2.59538 1.93783 2.2666 2.2666C1.93783 2.59538 1.75312 3.04129 1.75312 3.50625V6.575ZM12.2734 15.1688H8.43437L7.59219 18.2H5.26094L8.99531 6.34687H11.7812L15.5859 18.2016H13.1156L12.2734 15.1672V15.1688ZM11.7656 13.3094L11.4156 12.0125C11.0469 10.7844 10.7125 9.41562 10.3625 8.13594C10.0469 9.43281 9.69687 10.7844 9.34688 12.0109L8.99531 13.3078H11.7656V13.3094ZM16.9906 6.34687H19.2875V18.2016H16.9906V6.34687Z" fill="#13EC5B"/>
</svg>
