<svg width="22" height="22" viewBox="0 0 22 22" fill="none" xmlns="http://www.w3.org/2000/svg">
<path d="M11 15.95L9.45 12.5L6 10.95L9.45 9.375L11 5.95L12.575 9.375L16 10.95L12.575 12.5L11 15.95ZM11 21.95C9.2 21.95 7.5125 21.5375 5.9375 20.7125C4.3625 19.8875 3.05 18.7333 2 17.25V19.95H0V13.95H6V15.95H3.55C4.4 17.2 5.47917 18.1792 6.7875 18.8875C8.09583 19.5958 9.5 19.95 11 19.95C12.9167 19.95 14.6542 19.4 16.2125 18.3C17.7708 17.2 18.8667 15.7417 19.5 13.925L21.45 14.375C20.7 16.6417 19.3667 18.4708 17.45 19.8625C15.5333 21.2542 13.3833 21.95 11 21.95ZM0.05 9.95C0.166667 8.83333 0.433333 7.7625 0.85 6.7375C1.26667 5.7125 1.84167 4.76667 2.575 3.9L4 5.325C3.46667 6.00833 3.03333 6.7375 2.7 7.5125C2.36667 8.2875 2.15833 9.1 2.075 9.95H0.05ZM5.4 3.925L3.975 2.5C4.85833 1.76667 5.80833 1.1875 6.825 0.7625C7.84167 0.3375 8.9 0.0833333 10 0V2C9.15 2.08333 8.34167 2.29167 7.575 2.625C6.80833 2.95833 6.08333 3.39167 5.4 3.925ZM16.625 3.925C15.9417 3.39167 15.2125 2.95833 14.4375 2.625C13.6625 2.29167 12.85 2.08333 12 2V0C13.1167 0.1 14.1875 0.358333 15.2125 0.775C16.2375 1.19167 17.1833 1.76667 18.05 2.5L16.625 3.925ZM19.95 9.95C19.8667 9.1 19.6583 8.2875 19.325 7.5125C18.9917 6.7375 18.5583 6.00833 18.025 5.325L19.45 3.9C20.1833 4.76667 20.7583 5.7125 21.175 6.7375C21.5917 7.7625 21.85 8.83333 21.95 9.95H19.95Z" fill="#22C55E"/>
</svg>
