<svg width="11" height="20" viewBox="0 0 11 20" fill="none" xmlns="http://www.w3.org/2000/svg">
<path d="M8.01562 10.9688V3C8.01562 1.3125 6.65625 0 5.01562 0C3.375 0 2.01562 1.3125 2.01562 3V10.9688C0.796875 11.9062 0 13.3594 0 15C0 17.7656 2.25 19.9688 5.01562 19.9688C7.78125 19.9688 10.0312 17.7656 10.0312 15C10.0312 13.3594 9.23438 11.9062 8.01562 10.9688ZM6 9H4.03125V3C4.03125 2.4375 4.45312 1.96875 5.01562 1.96875C5.57812 1.96875 6 2.4375 6 3H5.53125C5.25 3 5.01562 3.1875 5.01562 3.46875C5.01562 3.75 5.25 3.98438 5.53125 3.98438H6V6H5.53125C5.25 6 5.01562 6.1875 5.01562 6.46875C5.01562 6.75 5.25 6.98438 5.53125 6.98438H6V9Z" fill="#13EC5B"/>
</svg>
