<svg width="17" height="20" viewBox="0 0 17 20" fill="none" xmlns="http://www.w3.org/2000/svg">
<path d="M8.67188 0.246094C8.29688 -0.0820312 7.73438 -0.0820312 7.35938 0.246094C2.48438 4.55859 0 8.30859 0 11.4492C0 16.4648 3.79688 19.6523 8.01562 19.6523C12.2344 19.6523 16.0312 16.4648 16.0312 11.4492C16.0312 8.30859 13.5469 4.55859 8.67188 0.246094ZM3.84375 11.6836C4.21875 11.6836 4.5 11.918 4.59375 12.293C5.01562 14.4961 6.84375 15.2461 8.20312 15.1523C8.67188 15.1523 9 15.4805 9 15.9023C9 16.3242 8.71875 16.6523 8.29688 16.6523C6.1875 16.793 3.65625 15.5742 3.09375 12.5273C3.04688 12.1055 3.375 11.6836 3.84375 11.6836Z" fill="#13EC5B"/>
</svg>
