<svg width="13" height="20" viewBox="0 0 13 20" fill="none" xmlns="http://www.w3.org/2000/svg">
<path d="M1 20C0.716667 20 0.479167 19.9042 0.2875 19.7125C0.0958333 19.5208 0 19.2833 0 19V3C0 2.71667 0.0958333 2.47917 0.2875 2.2875C0.479167 2.09583 0.716667 2 1 2H3V0H7V2H9C9.28333 2 9.52083 2.09583 9.7125 2.2875C9.90417 2.47917 10 2.71667 10 3V10C8.33333 10.0167 6.91667 10.6042 5.75 11.7625C4.58333 12.9208 4 14.3333 4 16C4 16.7667 4.13333 17.4917 4.4 18.175C4.66667 18.8583 5.04167 19.4667 5.525 20H1ZM2 8H8V4H2V8ZM9.5 20V17H7L10.5 12V15H13L9.5 20Z" fill="#13EC5B"/>
</svg>
