<svg width="10" height="9" viewBox="0 0 10 9" fill="none" xmlns="http://www.w3.org/2000/svg">
<path d="M4.75 8.5C4.33333 8.5 3.97917 8.35417 3.6875 8.0625C3.39583 7.77083 3.25 7.41667 3.25 7H4.25C4.25 7.14167 4.29792 7.26042 4.39375 7.35625C4.48958 7.45208 4.60833 7.5 4.75 7.5C4.89167 7.5 5.01042 7.45208 5.10625 7.35625C5.20208 7.26042 5.25 7.14167 5.25 7C5.25 6.85833 5.20208 6.73958 5.10625 6.64375C5.01042 6.54792 4.89167 6.5 4.75 6.5H0V5.5H4.75C5.16667 5.5 5.52083 5.64583 5.8125 5.9375C6.10417 6.22917 6.25 6.58333 6.25 7C6.25 7.41667 6.10417 7.77083 5.8125 8.0625C5.52083 8.35417 5.16667 8.5 4.75 8.5ZM0 3.5V2.5H6.75C6.96667 2.5 7.14583 2.42917 7.2875 2.2875C7.42917 2.14583 7.5 1.96667 7.5 1.75C7.5 1.53333 7.42917 1.35417 7.2875 1.2125C7.14583 1.07083 6.96667 1 6.75 1C6.53333 1 6.35417 1.07083 6.2125 1.2125C6.07083 1.35417 6 1.53333 6 1.75H5C5 1.25833 5.16875 0.84375 5.50625 0.50625C5.84375 0.16875 6.25833 0 6.75 0C7.24167 0 7.65625 0.16875 7.99375 0.50625C8.33125 0.84375 8.5 1.25833 8.5 1.75C8.5 2.24167 8.33125 2.65625 7.99375 2.99375C7.65625 3.33125 7.24167 3.5 6.75 3.5H0ZM8.25 7.5V6.5C8.46667 6.5 8.64583 6.42917 8.7875 6.2875C8.92917 6.14583 9 5.96667 9 5.75C9 5.53333 8.92917 5.35417 8.7875 5.2125C8.64583 5.07083 8.46667 5 8.25 5H0V4H8.25C8.74167 4 9.15625 4.16875 9.49375 4.50625C9.83125 4.84375 10 5.25833 10 5.75C10 6.24167 9.83125 6.65625 9.49375 6.99375C9.15625 7.33125 8.74167 7.5 8.25 7.5Z" fill="#0F172A"/>
</svg>
