<svg width="11" height="11" viewBox="0 0 11 11" fill="none" xmlns="http://www.w3.org/2000/svg">
<path d="M5 2V0H6V2H5ZM8.325 3.375L7.6375 2.6875L9.0375 1.25L9.7375 1.9625L8.325 3.375ZM9 6V5H11V6H9ZM5 11V9H6V11H5ZM2.675 3.35L1.25 1.9625L1.9625 1.2625L3.375 2.675L2.675 3.35ZM9.025 9.75L7.6375 8.3125L8.3125 7.6375L9.7375 9.0125L9.025 9.75ZM0 6V5H2V6H0ZM1.9625 9.75L1.2625 9.0375L2.6625 7.6375L3.025 7.975L3.3875 8.325L1.9625 9.75ZM5.5 8.5C4.66667 8.5 3.95833 8.20833 3.375 7.625C2.79167 7.04167 2.5 6.33333 2.5 5.5C2.5 4.66667 2.79167 3.95833 3.375 3.375C3.95833 2.79167 4.66667 2.5 5.5 2.5C6.33333 2.5 7.04167 2.79167 7.625 3.375C8.20833 3.95833 8.5 4.66667 8.5 5.5C8.5 6.33333 8.20833 7.04167 7.625 7.625C7.04167 8.20833 6.33333 8.5 5.5 8.5ZM5.5 7.5C6.05 7.5 6.52083 7.30417 6.9125 6.9125C7.30417 6.52083 7.5 6.05 7.5 5.5C7.5 4.95 7.30417 4.47917 6.9125 4.0875C6.52083 3.69583 6.05 3.5 5.5 3.5C4.95 3.5 4.47917 3.69583 4.0875 4.0875C3.69583 4.47917 3.5 4.95 3.5 5.5C3.5 6.05 3.69583 6.52083 4.0875 6.9125C4.47917 7.30417 4.95 7.5 5.5 7.5Z" fill="#0F172A"/>
</svg>
