<svg width="8" height="10" viewBox="0 0 8 10" fill="none" xmlns="http://www.w3.org/2000/svg">
<path d="M4.1375 8.5C4.2375 8.49167 4.32292 8.45208 4.39375 8.38125C4.46458 8.31042 4.5 8.225 4.5 8.125C4.5 8.00833 4.4625 7.91458 4.3875 7.84375C4.3125 7.77292 4.21667 7.74167 4.1 7.75C3.75833 7.775 3.39583 7.68125 3.0125 7.46875C2.62917 7.25625 2.3875 6.87083 2.2875 6.3125C2.27083 6.22083 2.22708 6.14583 2.15625 6.0875C2.08542 6.02917 2.00417 6 1.9125 6C1.79583 6 1.7 6.04375 1.625 6.13125C1.55 6.21875 1.525 6.32083 1.55 6.4375C1.69167 7.19583 2.025 7.7375 2.55 8.0625C3.075 8.3875 3.60417 8.53333 4.1375 8.5ZM4 10C2.85833 10 1.90625 9.60833 1.14375 8.825C0.38125 8.04167 0 7.06667 0 5.9C0 5.06667 0.33125 4.16042 0.99375 3.18125C1.65625 2.20208 2.65833 1.14167 4 0C5.34167 1.14167 6.34375 2.20208 7.00625 3.18125C7.66875 4.16042 8 5.06667 8 5.9C8 7.06667 7.61875 8.04167 6.85625 8.825C6.09375 9.60833 5.14167 10 4 10ZM4 9C4.86667 9 5.58333 8.70625 6.15 8.11875C6.71667 7.53125 7 6.79167 7 5.9C7 5.29167 6.74792 4.60417 6.24375 3.8375C5.73958 3.07083 4.99167 2.23333 4 1.325C3.00833 2.23333 2.26042 3.07083 1.75625 3.8375C1.25208 4.60417 1 5.29167 1 5.9C1 6.79167 1.28333 7.53125 1.85 8.11875C2.41667 8.70625 3.13333 9 4 9Z" fill="#0F172A"/>
</svg>
