<svg width="10" height="12" viewBox="0 0 10 12" fill="none" xmlns="http://www.w3.org/2000/svg">
<path d="M4.66667 11.0833C3.37361 11.0833 2.27257 10.6361 1.36354 9.74167C0.454514 8.84722 0 7.75833 0 6.475C0 5.8625 0.119097 5.27674 0.357292 4.71771C0.595486 4.15868 0.933333 3.66528 1.37083 3.2375L4.66667 0L7.9625 3.2375C8.4 3.66528 8.73785 4.15868 8.97604 4.71771C9.21424 5.27674 9.33333 5.8625 9.33333 6.475C9.33333 7.75833 8.87882 8.84722 7.96979 9.74167C7.06076 10.6361 5.95972 11.0833 4.66667 11.0833ZM1.16667 6.475H8.16667C8.16667 6.01806 8.07917 5.58299 7.90417 5.16979C7.72917 4.7566 7.47639 4.39444 7.14583 4.08333L4.66667 1.63333L2.1875 4.08333C1.85694 4.39444 1.60417 4.7566 1.42917 5.16979C1.25417 5.58299 1.16667 6.01806 1.16667 6.475Z" fill="#3B82F6"/>
</svg>
