<svg width="26" height="19" viewBox="0 0 26 19" fill="none" xmlns="http://www.w3.org/2000/svg">
<path d="M20.4854 5.29526C22.6784 5.31266 22.991 5.16377 24.1974 6.45541C26.3142 5.65297 25.3227 2.1735 22.9636 2.7294C23.1883 1.1516 20.2998 -1.85705 17.7864 1.58085C17.8577 1.61276 20.6398 2.77291 20.4864 5.29816V5.29526H20.4854ZM21.2669 6.83245L21.0881 6.75801L19.1393 6.6971C18.7786 5.16029 17.9036 3.78923 16.6565 2.80645C15.4094 1.82367 13.8634 1.28684 12.2692 1.28308C8.79169 1.27825 5.81234 3.68072 4.59129 7.83405L4.14292 7.85725L3.95439 7.94523C1.13231 9.26006 -0.197165 11.532 0.0235997 14.0457C0.211152 16.1852 1.5543 18.1864 3.23153 18.752L3.3976 18.8071L21.1077 18.8226L21.2366 18.7897C22.4487 18.4365 23.5135 17.7061 24.2733 16.7069C25.033 15.7077 25.4472 14.4928 25.4546 13.2423C25.5276 11.8732 25.1618 10.5164 24.4094 9.36531C23.657 8.21424 22.5565 7.32779 21.2649 6.83245H21.2669ZM10.4543 15.4949C9.95687 15.8856 9.33661 16.0909 8.70182 16.075C8.2594 16.1056 7.81592 16.0323 7.40761 15.8609C6.99931 15.6895 6.63777 15.425 6.35253 15.0888C5.87318 14.4325 5.63594 13.6332 5.68046 12.8246C5.64124 12.0102 5.88802 11.2074 6.3789 10.5527C6.65648 10.2179 7.01064 9.95344 7.41204 9.78111C7.81345 9.60879 8.25055 9.53357 8.68717 9.5617C9.34949 9.53533 10 9.7407 10.5246 10.1418C10.9876 10.5208 11.2856 11.0602 11.3559 11.65H10.3497C10.2751 11.2851 10.0627 10.9622 9.75583 10.747C9.43105 10.5463 9.052 10.4488 8.66959 10.4676C8.38321 10.4481 8.09645 10.4998 7.83542 10.618C7.57438 10.7362 7.34736 10.9171 7.17502 11.1443C6.84043 11.6411 6.67919 12.2326 6.71591 12.8285C6.67715 13.4281 6.83472 14.0241 7.16526 14.5281C7.35074 14.7471 7.5862 14.9192 7.85219 15.0303C8.11818 15.1415 8.40707 15.1884 8.69498 15.1671C9.08963 15.1826 9.47841 15.0685 9.80076 14.8433C10.126 14.5648 10.3488 14.1888 10.4367 13.7721H11.4448C11.3408 14.4477 10.988 15.0613 10.4543 15.4949ZM17.5002 15.1517C17.2112 15.4611 16.8572 15.704 16.4632 15.8634C16.0691 16.0227 15.6445 16.0946 15.2193 16.074C14.7934 16.095 14.3681 16.0224 13.9739 15.8614C13.5797 15.7005 13.2264 15.4551 12.9393 15.143C12.392 14.4947 12.111 13.6665 12.152 12.8227C12.1111 11.9799 12.3898 11.1523 12.9335 10.5024C13.2178 10.1862 13.5706 9.93759 13.9655 9.7752C14.3605 9.61282 14.7874 9.54083 15.2144 9.5646C15.6402 9.54296 16.0657 9.61496 16.46 9.77544C16.8544 9.93591 17.208 10.1809 17.4953 10.4927C18.0482 11.1443 18.3315 11.9767 18.2905 12.8256C18.3305 13.6706 18.0465 14.4993 17.4953 15.1459L17.5002 15.1517ZM21.5717 15.7733H19.0973C19.0895 15.4282 19.2145 15.0917 19.449 14.8355C19.6951 14.59 19.9687 14.3734 20.2637 14.1888C20.4395 14.0727 20.6026 13.9403 20.7521 13.7943C20.8979 13.6439 20.9815 13.4449 20.9865 13.2365C20.9922 13.1582 20.9813 13.0796 20.9545 13.0057C20.9278 12.9318 20.8858 12.8642 20.8312 12.8072C20.7007 12.705 20.5361 12.6552 20.3701 12.668C20.2765 12.6625 20.183 12.6799 20.0978 12.7187C20.0126 12.7574 19.9384 12.8164 19.8817 12.8904C19.7586 13.076 19.6961 13.2945 19.702 13.5168H19.1208C19.1078 13.1668 19.2325 12.8255 19.4685 12.5645C19.5844 12.4369 19.7273 12.3361 19.887 12.2692C20.0467 12.2024 20.2193 12.1712 20.3926 12.1778C20.7034 12.1663 21.007 12.2717 21.2425 12.4727C21.3506 12.5687 21.4361 12.6871 21.4929 12.8194C21.5498 12.9517 21.5767 13.0947 21.5717 13.2384C21.5677 13.5497 21.4427 13.8475 21.2239 14.0708C20.9992 14.2845 20.7521 14.4749 20.4874 14.6383C20.2168 14.7853 19.9892 14.9999 19.827 15.26H21.5765V15.7685L21.5726 15.7733H21.5717ZM15.2193 10.4676C14.9317 10.4531 14.6446 10.505 14.3808 10.6193C14.117 10.7336 13.8837 10.907 13.6993 11.126C13.3335 11.6168 13.1525 12.2186 13.1875 12.8275C13.1538 13.4339 13.3348 14.0328 13.6993 14.5213C13.885 14.7381 14.1188 14.9094 14.3825 15.0219C14.6462 15.1345 14.9325 15.1852 15.2193 15.17C15.5027 15.1861 15.7861 15.1385 16.0482 15.0308C16.3104 14.9232 16.5447 14.7582 16.7334 14.5484C17.106 14.0536 17.2904 13.4446 17.254 12.8285C17.2895 12.2061 17.1051 11.5908 16.7324 11.0883C16.5453 10.8767 16.3115 10.7105 16.0491 10.6025C15.7868 10.4946 15.5028 10.4477 15.2193 10.4656V10.4676Z" fill="#60A5FA"/>
</svg>
