<?xml version="1.0" standalone="no"?><!DOCTYPE svg PUBLIC "-//W3C//DTD SVG 1.1//EN" "http://www.w3.org/Graphics/SVG/1.1/DTD/svg11.dtd"><svg t="1775702814975" class="icon" viewBox="0 0 1024 1024" version="1.1" xmlns="http://www.w3.org/2000/svg" p-id="7674" xmlns:xlink="http://www.w3.org/1999/xlink" width="128" height="128"><path d="M810.362106 768.096177h-110.891657L426.506371 461.01159l200.457995-132.216975c25.590382-17.060255 46.915701-42.650637 59.710892-72.506083h140.747102l76.771147 38.385573c8.530127 4.265064 17.060255 4.265064 21.325319 4.265064 8.530127 0 17.060255-4.265064 25.590382-8.530128l55.445828-42.650637c17.060255-12.795191 21.325319-42.650637 8.530128-59.710892-12.795191-17.060255-42.650637-21.325319-59.710892-8.530127l-34.12051 25.590382-38.385573-17.060255V111.276365l38.385573-17.060255 34.12051 25.590383c17.060255 12.795191 46.915701 12.795191 59.710892-8.530128 12.795191-17.060255 12.795191-46.915701-8.530128-59.710892l-55.445828-42.650637c-12.795191-8.530127-29.855446-12.795191-42.650637-4.265064l-76.771147 38.385574h-255.903823c-34.12051-4.265064-72.506083 0-106.626593 17.060255L89.566338 277.61385l-4.265064 4.265064c-51.180765 29.855446-85.301274 85.301274-85.301274 145.012166 0 42.650637 17.060255 81.036211 42.650637 110.891657l4.265064 4.265063L247.373695 768.096177H213.253186c-119.421784 0-213.253186 93.831402-213.253186 213.253186 0 25.590382 17.060255 42.650637 42.650637 42.650637h938.314017c25.590382 0 42.650637-17.060255 42.650637-42.650637 0-119.421784-93.831402-213.253186-213.253185-213.253186zM110.891657 486.601972l-4.265064-4.265064C93.831402 469.541717 85.301274 448.216399 85.301274 426.89108c0-46.915701 38.385573-85.301274 85.301275-85.301274s85.301274 38.385573 85.301274 85.301274-38.385573 85.301274-85.301274 85.301274c-21.325319 0-42.650637-8.530127-59.710892-25.590382zM797.566914 170.987257h-98.096465c-4.265064-12.795191-8.530127-29.855446-12.795191-42.650637h110.891656v42.650637z m-290.024332-34.120509c34.12051-21.325319 76.771147-8.530127 98.096465 25.590382 21.325319 34.12051 12.795191 76.771147-21.325318 98.096465l-213.253186 140.747103-63.975956-81.036211h-4.265063c-12.795191-17.060255-29.855446-29.855446-46.915701-38.385573l251.638759-145.012166zM204.723058 593.228565c59.710892-12.795191 106.626593-55.445828 127.951912-115.15672l255.903822 285.759268H358.265352l-153.542294-170.602548zM93.831402 938.698726c17.060255-51.180765 63.975956-85.301274 119.421784-85.301275h597.10892c55.445828 0 102.361529 34.12051 119.421784 85.301275H93.831402z" p-id="7675"></path></svg>