<svg width="29" height="26" viewBox="0 0 29 26" fill="none" xmlns="http://www.w3.org/2000/svg">
<path d="M6.56167 14.1567C6.56167 16.1458 7.35184 18.0534 8.75837 19.46C10.1649 20.8665 12.0725 21.6567 14.0617 21.6567C16.0508 21.6567 17.9584 20.8665 19.365 19.46C20.7715 18.0534 21.5617 16.1458 21.5617 14.1567H26.25C27.2833 14.1567 28.125 14.995 28.125 16.0317V23.5317C28.125 24.5667 27.285 25.4067 26.25 25.4067H1.875C1.37772 25.4067 0.900806 25.2091 0.549175 24.8575C0.197544 24.5059 0 24.0289 0 23.5317V16.0317C0 14.995 0.838333 14.1567 1.875 14.1567H6.56167ZM13.875 1.21667C15.5967 1.21667 17.02 2.56167 17.1467 4.255L17.155 4.49833V10.2433C17.993 10.9144 18.6052 11.8264 18.9089 12.8561C19.2126 13.8859 19.1933 14.9841 18.8535 16.0025C18.5138 17.021 17.87 17.9108 17.0089 18.5521C16.1477 19.1933 15.1107 19.5551 14.0376 19.5887C12.9645 19.6223 11.9069 19.3261 11.0073 18.74C10.1078 18.1539 9.40956 17.3061 9.00677 16.3109C8.60398 15.3156 8.516 14.2209 8.75469 13.1741C8.99338 12.1273 9.54726 11.1789 10.3417 10.4567L10.5917 10.2433V4.5C10.5917 2.695 12.07 1.21833 13.875 1.21833V1.21667ZM13.875 5.155C13.7239 5.15492 13.5775 5.20693 13.4603 5.30226C13.3431 5.39759 13.2623 5.53041 13.2317 5.67833L13.2183 5.81167V12.485C12.7802 12.6399 12.4109 12.9447 12.1758 13.3455C11.9407 13.7464 11.8548 14.2174 11.9334 14.6755C12.012 15.1335 12.2499 15.549 12.6052 15.8485C12.9605 16.148 13.4103 16.3123 13.875 16.3123C14.3397 16.3123 14.7895 16.148 15.1448 15.8485C15.5001 15.549 15.738 15.1335 15.8166 14.6755C15.8952 14.2174 15.8093 13.7464 15.5742 13.3455C15.3391 12.9447 14.9698 12.6399 14.5317 12.485V5.81167C14.5312 5.6378 14.4618 5.4712 14.3387 5.34841C14.2156 5.22562 14.0489 5.15667 13.875 5.15667V5.155ZM23.0617 0L23.115 0.06C23.5867 0.593333 26.9983 4.53833 26.9983 6.56167C26.9983 7.60596 26.5835 8.60747 25.8451 9.3459C25.1066 10.0843 24.1051 10.4992 23.0608 10.4992C22.0165 10.4992 21.015 10.0843 20.2766 9.3459C19.5382 8.60747 19.1233 7.60596 19.1233 6.56167C19.1233 4.53833 22.5367 0.595 23.0067 0.0616667L23.0617 0ZM23.4833 7.08333C22.925 7.545 22.6617 8.14667 22.8917 8.42667C23.125 8.705 23.7633 8.555 24.3217 8.09333C24.88 7.63 25.1433 7.02833 24.9133 6.75C24.68 6.47167 24.0417 6.62 23.4833 7.08333Z" fill="#059669"/>
</svg>
