<svg width="34" height="34" viewBox="0 0 34 34" fill="none" xmlns="http://www.w3.org/2000/svg">
<path d="M4.8 29.1846C3.3 27.6846 2.125 25.9513 1.275 23.9846C0.425 22.0179 0 19.9846 0 17.8846C0 15.7846 0.4 13.7096 1.2 11.6596C2 9.60962 3.3 7.68462 5.1 5.88462C6.26667 4.71795 7.70833 3.71795 9.425 2.88462C11.1417 2.05128 13.175 1.39295 15.525 0.909615C17.875 0.426282 20.5583 0.134615 23.575 0.0346154C26.5917 -0.0653846 29.9667 0.051282 33.7 0.384615C33.9667 3.91795 34.05 7.16795 33.95 10.1346C33.85 13.1013 33.575 15.7763 33.125 18.1596C32.675 20.5429 32.0417 22.6263 31.225 24.4096C30.4083 26.1929 29.4 27.6846 28.2 28.8846C26.4333 30.6513 24.5583 31.9429 22.575 32.7596C20.5917 33.5763 18.5667 33.9846 16.5 33.9846C14.3333 33.9846 12.2167 33.5596 10.15 32.7096C8.08333 31.8596 6.3 30.6846 4.8 29.1846ZM10.4 28.3846C11.3667 28.9513 12.3583 29.3596 13.375 29.6096C14.3917 29.8596 15.4333 29.9846 16.5 29.9846C18.0333 29.9846 19.55 29.6763 21.05 29.0596C22.55 28.4429 23.9833 27.4513 25.35 26.0846C25.95 25.4846 26.5583 24.643 27.175 23.5596C27.7917 22.4763 28.325 21.0596 28.775 19.3096C29.225 17.5596 29.5667 15.4429 29.8 12.9596C30.0333 10.4763 30.0667 7.51795 29.9 4.08462C28.2667 4.01795 26.425 3.99295 24.375 4.00962C22.325 4.02628 20.2833 4.18462 18.25 4.48462C16.2167 4.78462 14.2833 5.26795 12.45 5.93462C10.6167 6.60128 9.11667 7.51795 7.95 8.68462C6.45 10.1846 5.41667 11.6679 4.85 13.1346C4.28333 14.6013 4 16.0179 4 17.3846C4 19.3513 4.375 21.0763 5.125 22.5596C5.875 24.0429 6.53333 25.0846 7.1 25.6846C8.5 23.018 10.35 20.4596 12.65 18.0096C14.95 15.5596 17.6333 13.5513 20.7 11.9846C18.3 14.0846 16.2083 16.4596 14.425 19.1096C12.6417 21.7596 11.3 24.8513 10.4 28.3846Z" fill="#13EC5B"/>
</svg>
