<svg width="19" height="25" viewBox="0 0 19 25" fill="none" xmlns="http://www.w3.org/2000/svg">
<path d="M9.375 25C8.6875 25 8.09896 24.7552 7.60938 24.2656C7.11979 23.776 6.875 23.1875 6.875 22.5H11.875C11.875 23.1875 11.6302 23.776 11.1406 24.2656C10.651 24.7552 10.0625 25 9.375 25ZM4.375 21.25V18.75H14.375V21.25H4.375ZM4.6875 17.5C3.25 16.6458 2.10938 15.5 1.26562 14.0625C0.421875 12.625 0 11.0625 0 9.375C0 6.77083 0.911458 4.55729 2.73438 2.73438C4.55729 0.911458 6.77083 0 9.375 0C11.9792 0 14.1927 0.911458 16.0156 2.73438C17.8385 4.55729 18.75 6.77083 18.75 9.375C18.75 11.0625 18.3281 12.625 17.4844 14.0625C16.6406 15.5 15.5 16.6458 14.0625 17.5H4.6875ZM5.4375 15H13.3125C14.25 14.3333 14.974 13.5104 15.4844 12.5312C15.9948 11.5521 16.25 10.5 16.25 9.375C16.25 7.45833 15.5833 5.83333 14.25 4.5C12.9167 3.16667 11.2917 2.5 9.375 2.5C7.45833 2.5 5.83333 3.16667 4.5 4.5C3.16667 5.83333 2.5 7.45833 2.5 9.375C2.5 10.5 2.75521 11.5521 3.26562 12.5312C3.77604 13.5104 4.5 14.3333 5.4375 15Z" fill="#13EC5B"/>
</svg>
