<svg width="20" height="25" viewBox="0 0 20 25" fill="none" xmlns="http://www.w3.org/2000/svg">
<path d="M10.3438 21.25C10.5938 21.2292 10.8073 21.1302 10.9844 20.9531C11.1615 20.776 11.25 20.5625 11.25 20.3125C11.25 20.0208 11.1562 19.7865 10.9688 19.6094C10.7812 19.4323 10.5417 19.3542 10.25 19.375C9.39583 19.4375 8.48958 19.2031 7.53125 18.6719C6.57292 18.1406 5.96875 17.1771 5.71875 15.7812C5.67708 15.5521 5.56771 15.3646 5.39062 15.2188C5.21354 15.0729 5.01042 15 4.78125 15C4.48958 15 4.25 15.1094 4.0625 15.3281C3.875 15.5469 3.8125 15.8021 3.875 16.0938C4.22917 17.9896 5.0625 19.3438 6.375 20.1562C7.6875 20.9688 9.01042 21.3333 10.3438 21.25ZM10 25C7.14583 25 4.76562 24.0208 2.85938 22.0625C0.953125 20.1042 0 17.6667 0 14.75C0 12.6667 0.828125 10.401 2.48438 7.95312C4.14062 5.50521 6.64583 2.85417 10 0C13.3542 2.85417 15.8594 5.50521 17.5156 7.95312C19.1719 10.401 20 12.6667 20 14.75C20 17.6667 19.0469 20.1042 17.1406 22.0625C15.2344 24.0208 12.8542 25 10 25ZM10 22.5C12.1667 22.5 13.9583 21.7656 15.375 20.2969C16.7917 18.8281 17.5 16.9792 17.5 14.75C17.5 13.2292 16.8698 11.5104 15.6094 9.59375C14.349 7.67708 12.4792 5.58333 10 3.3125C7.52083 5.58333 5.65104 7.67708 4.39062 9.59375C3.13021 11.5104 2.5 13.2292 2.5 14.75C2.5 16.9792 3.20833 18.8281 4.625 20.2969C6.04167 21.7656 7.83333 22.5 10 22.5Z" fill="#13EC5B"/>
</svg>
