<svg width="20" height="20" viewBox="0 0 20 20" fill="none" xmlns="http://www.w3.org/2000/svg">
<g clip-path="url(#clip0_485_20)">
<path d="M16.2201 16.675C16.0675 16.7895 15.8894 16.8467 15.6859 16.8467C15.4316 16.8467 15.2121 16.7545 15.0277 16.5701C14.8433 16.3857 14.7511 16.1662 14.7511 15.9119C14.7511 15.632 14.8592 15.3967 15.0754 15.2059C15.0881 15.1932 15.1009 15.1837 15.1136 15.1773C15.1263 15.171 15.139 15.1614 15.1517 15.1487L15.1708 15.1296C15.5269 14.888 15.8576 14.6018 16.1629 14.2711C16.4682 13.9404 16.7353 13.581 16.9642 13.1931C17.1932 12.8052 17.3712 12.3918 17.4984 11.953C17.6256 11.5142 17.6892 11.0594 17.6892 10.5888C17.6892 9.63489 17.4476 8.76361 16.9642 7.97502C16.4809 7.18642 15.8767 6.53774 15.1517 6.02896C14.8846 5.83817 14.7511 5.58379 14.7511 5.26581C14.7511 5.01142 14.8433 4.79201 15.0277 4.60758C15.2121 4.42315 15.4316 4.33094 15.6859 4.33094C15.9022 4.33094 16.093 4.40089 16.2583 4.54081C16.7289 4.87151 17.1677 5.25627 17.5748 5.69508C17.9818 6.1339 18.3316 6.61087 18.6241 7.126C18.9166 7.64114 19.1456 8.19125 19.3109 8.77633C19.4763 9.36142 19.559 9.96559 19.559 10.5888C19.559 11.2248 19.4763 11.8353 19.3109 12.4204C19.1456 13.0055 18.9135 13.5588 18.6146 14.0803C18.3157 14.6018 17.9627 15.0819 17.5557 15.5207C17.1487 15.9596 16.7035 16.3443 16.2201 16.675ZM15.1517 8.10857C15.4188 8.47743 15.6319 8.84947 15.7909 9.22469C15.9499 9.59991 16.0294 10.0546 16.0294 10.5888C16.0294 11.0976 15.9467 11.5555 15.7813 11.9625C15.616 12.3695 15.4061 12.7384 15.1517 13.0691C15.05 13.209 14.9419 13.333 14.8274 13.4411C14.7129 13.5493 14.5666 13.6033 14.3886 13.6033C14.1596 13.6033 13.9657 13.5206 13.8067 13.3553C13.6477 13.1899 13.5682 12.9928 13.5682 12.7638C13.5682 12.6621 13.5873 12.5603 13.6254 12.4586H13.6063C13.6699 12.3187 13.7462 12.1851 13.8353 12.0579C13.9243 11.9307 14.0102 11.8003 14.0928 11.6668C14.1755 11.5332 14.2455 11.3806 14.3027 11.2089C14.36 11.0372 14.3886 10.8305 14.3886 10.5888C14.3886 10.3599 14.36 10.1596 14.3027 9.98785C14.2455 9.81614 14.1755 9.66033 14.0928 9.52041C14.0102 9.3805 13.9243 9.24695 13.8353 9.11975C13.7462 8.99256 13.6763 8.85901 13.6254 8.7191C13.5873 8.63006 13.5682 8.52831 13.5682 8.41383C13.5682 8.18489 13.6477 7.98774 13.8067 7.82239C13.9657 7.65703 14.1596 7.57436 14.3886 7.57436C14.5666 7.57436 14.7129 7.62842 14.8274 7.73653C14.9419 7.84464 15.05 7.96866 15.1517 8.10857ZM8.98923 19.4415C8.34054 18.8564 7.6537 18.2459 6.9287 17.6099C6.2037 16.9739 5.52958 16.3888 4.90633 15.8546C4.18133 15.2441 3.45633 14.6399 2.73133 14.0421C2.59142 14.0548 2.45151 14.0612 2.3116 14.0612C2.19712 14.0739 2.07629 14.0803 1.9491 14.0803H1.62475C1.28133 14.0803 1.00151 13.9753 0.78528 13.7655C0.569052 13.5556 0.460937 13.3044 0.460938 13.0119V8.20397H0.480016L0.460938 8.18489C0.460938 7.82875 0.572231 7.5362 0.794819 7.30725C1.01741 7.07831 1.29405 6.96383 1.62475 6.96383H2.71225C3.88243 5.97173 4.94449 5.08138 5.89844 4.29278C6.30545 3.94936 6.70611 3.61548 7.10041 3.29114C7.49471 2.96679 7.85085 2.67107 8.16883 2.40396C8.48681 2.13686 8.75392 1.91427 8.97015 1.7362C9.18638 1.55813 9.31993 1.45002 9.37081 1.41186C9.75239 1.13203 10.0608 1.00484 10.2961 1.03028C10.5314 1.05572 10.7159 1.17019 10.8494 1.3737C10.983 1.57721 11.0752 1.82524 11.1261 2.11778C11.1769 2.41032 11.2024 2.67743 11.2024 2.9191V18.3158V18.373C11.2024 18.6147 11.1579 18.8723 11.0688 19.1457C10.9798 19.4192 10.8431 19.6354 10.6586 19.7944C10.4742 19.9534 10.2421 20.0202 9.96225 19.9948C9.68243 19.9693 9.35809 19.7849 8.98923 19.4415Z" fill="#13EC5B"/>
</g>
<defs>
<clipPath id="clip0_485_20">
<rect width="20" height="20" fill="white"/>
</clipPath>
</defs>
</svg>
