<svg width="23" height="23" viewBox="0 0 23 23" fill="none" xmlns="http://www.w3.org/2000/svg">
<path d="M19.6471 16.4283L21.0818 17.9319L20.3644 18.6837L18.9293 17.1806L18.212 16.4288L18.9293 15.677L19.5757 14.9999L19.7803 14.7857L19.5326 14.5265L18.9293 13.8945L18.212 13.1431L18.9293 12.3913L19.7803 11.5001L18.9293 10.6088L18.212 9.85702L19.7799 8.21444L18.212 6.57137L20.3644 4.31641L21.0818 5.06823L19.6467 6.57137L21.0818 8.075L20.9486 8.21444L21.0818 8.35387L19.6471 9.8575L21.0818 11.3606L20.9486 11.5001L21.0818 11.6395L19.6471 13.1431L21.0818 14.6463L20.949 14.7857L21.0818 14.9252L19.6471 16.4283ZM15.3332 19.6459H7.66653C6.60805 19.6459 5.74986 18.7877 5.74986 17.7292V5.27091C5.74986 4.21244 6.60805 3.35425 7.66653 3.35425H15.3332C16.3917 3.35425 17.2499 4.21244 17.2499 5.27091V17.7292C17.2499 18.7877 16.3917 19.6459 15.3332 19.6459ZM15.3332 5.27091H7.66653V17.7292H15.3332V5.27091ZM12.9374 16.2917H10.0624V15.3334H12.9374V16.2917ZM4.07039 15.677L4.7877 16.4288L2.63528 18.6837L1.91797 17.9319L3.35259 16.4283L1.91797 14.9252L2.0507 14.7857L1.91797 14.6463L3.35259 13.1431L1.91797 11.6395L2.05118 11.5001L1.91797 11.3606L3.35259 9.8575L1.91797 8.35387L2.05118 8.21444L1.91797 8.075L3.35259 6.57137L1.91797 5.06823L2.63528 4.31641L4.7877 6.57137L3.21986 8.21444L4.7877 9.85702L4.07039 10.6088L3.21939 11.5001L4.07039 12.3913L4.7877 13.1431L3.21939 14.7857L3.47957 15.0579L4.07039 15.677Z" fill="#13EC5B"/>
</svg>
