<svg width="19" height="20" viewBox="0 0 19 20" fill="none" xmlns="http://www.w3.org/2000/svg">
<path d="M10.125 9.98836C8.10938 6.09773 9.1875 2.62898 10.1719 0.707107C10.3594 0.332107 10.0781 -0.0428932 9.65625 0.00398178C4.64062 0.660232 0.796875 5.06648 0.984375 10.3165C1.03125 10.3165 1.03125 10.3165 1.03125 10.3165C1.64062 10.0352 2.29688 9.89461 3 9.89461C4.6875 9.89461 6.1875 10.7384 7.125 12.0509C8.76562 12.5196 10.0312 14.0665 10.0312 15.8946C10.0312 17.3946 9.14062 18.7071 7.875 19.4102C8.85938 19.7384 9.9375 19.9259 11.0156 19.9259C14.1562 19.9259 16.9219 18.4727 18.75 16.2227C19.0312 15.8946 18.7969 15.4259 18.375 15.379C15.8906 15.2852 12.0938 13.879 10.125 9.98836ZM6 13.879H5.8125C5.4375 12.754 4.3125 11.9102 3 11.9102C1.35938 11.9102 0 13.2227 0 14.9102C0 16.5509 1.35938 17.9102 3 17.9102C3.65625 17.9102 5.48438 17.9102 6 17.9102C7.125 17.9102 8.01562 16.9727 8.01562 15.8946C8.01562 14.8165 7.125 13.879 6 13.879Z" fill="#13EC5B"/>
</svg>
