<svg width="19" height="9" viewBox="0 0 19 9" fill="none" xmlns="http://www.w3.org/2000/svg">
<path d="M8 6C7.71667 6 7.47917 5.90417 7.2875 5.7125C7.09583 5.52083 7 5.28333 7 5V1C7 0.716667 7.09583 0.479167 7.2875 0.2875C7.47917 0.0958333 7.71667 0 8 0H11C11.2833 0 11.5208 0.0958333 11.7125 0.2875C11.9042 0.479167 12 0.716667 12 1V5C12 5.28333 11.9042 5.52083 11.7125 5.7125C11.5208 5.90417 11.2833 6 11 6H8ZM8.5 4.5H10.5V1.5H8.5V4.5ZM1 6C0.716667 6 0.479167 5.90417 0.2875 5.7125C0.0958333 5.52083 0 5.28333 0 5V1C0 0.716667 0.0958333 0.479167 0.2875 0.2875C0.479167 0.0958333 0.716667 0 1 0H4C4.28333 0 4.52083 0.0958333 4.7125 0.2875C4.90417 0.479167 5 0.716667 5 1V2H3.5V1.5H1.5V4.5H3.5V4H5V5C5 5.28333 4.90417 5.52083 4.7125 5.7125C4.52083 5.90417 4.28333 6 4 6H1ZM14 9V6.5C14 6.21667 14.0958 5.97917 14.2875 5.7875C14.4792 5.59583 14.7167 5.5 15 5.5H17V4.5H14V3H17.5C17.7833 3 18.0208 3.09583 18.2125 3.2875C18.4042 3.47917 18.5 3.71667 18.5 4V5.5C18.5 5.78333 18.4042 6.02083 18.2125 6.2125C18.0208 6.40417 17.7833 6.5 17.5 6.5H15.5V7.5H18.5V9H14Z" fill="#9333EA"/>
</svg>
