<svg width="32" height="32" viewBox="0 0 32 32" fill="none" xmlns="http://www.w3.org/2000/svg">
<path d="M8 24V22H10.75L10.35 21.65C9.48333 20.8833 8.875 20.0083 8.525 19.025C8.175 18.0417 8 17.05 8 16.05C8 14.2 8.55417 12.5542 9.6625 11.1125C10.7708 9.67083 12.2167 8.71667 14 8.25V10.35C12.8 10.7833 11.8333 11.5208 11.1 12.5625C10.3667 13.6042 10 14.7667 10 16.05C10 16.8 10.1417 17.5292 10.425 18.2375C10.7083 18.9458 11.15 19.6 11.75 20.2L12 20.45V18H14V24H8ZM18 23.75V21.65C19.2 21.2167 20.1667 20.4792 20.9 19.4375C21.6333 18.3958 22 17.2333 22 15.95C22 15.2 21.8583 14.4708 21.575 13.7625C21.2917 13.0542 20.85 12.4 20.25 11.8L20 11.55V14H18V8H24V10H21.25L21.65 10.35C22.4667 11.1667 23.0625 12.0542 23.4375 13.0125C23.8125 13.9708 24 14.95 24 15.95C24 17.8 23.4458 19.4458 22.3375 20.8875C21.2292 22.3292 19.7833 23.2833 18 23.75Z" fill="#0F172A"/>
</svg>
