<svg width="26" height="27" viewBox="0 0 26 27" fill="none" xmlns="http://www.w3.org/2000/svg">
<path d="M7.69737 0C10.3832 0 12.5818 2.18053 12.5826 4.84974V12.9039C14.2982 14.3045 15.3947 16.4274 15.3947 18.8061C15.3947 23.0274 11.9471 26.4474 7.69737 26.4474C3.44763 26.4474 0 23.0274 0 18.8061C0 16.4274 1.09737 14.3045 2.81289 12.9039V4.84974C2.81289 2.18053 5.01158 0 7.69737 0ZM7.69737 2.25553C7.00342 2.25553 6.34895 2.52632 5.85158 3.01974C5.60801 3.25824 5.41447 3.54294 5.2823 3.85717C5.15013 4.1714 5.08198 4.50884 5.08184 4.84974V13.9839L5.00763 14.0439L4.30579 14.6021C3.67055 15.1032 3.15727 15.7419 2.8046 16.4701C2.45192 17.1983 2.26905 17.997 2.26974 18.8061C2.26974 20.2445 2.83342 21.5968 3.85895 22.6137C4.36344 23.1164 4.96219 23.5145 5.62087 23.7853C6.27954 24.0561 6.9852 24.1943 7.69737 24.1918C9.14842 24.1918 10.5111 23.6313 11.5358 22.6145C12.0406 22.1172 12.4411 21.5243 12.714 20.8703C12.9869 20.2164 13.1266 19.5146 13.125 18.8061C13.125 17.1639 12.3829 15.6324 11.0882 14.6021L10.3871 14.0439L10.3121 13.9847V4.84974C10.3121 4.16289 10.0397 3.51316 9.54316 3.01974C9.30093 2.77715 9.01319 2.58476 8.69645 2.45362C8.3797 2.32248 8.04019 2.25516 7.69737 2.25553ZM7.69737 6.31579C8.30289 6.31579 8.7829 6.83053 8.7829 7.44237V14.8413C10.3295 15.3284 11.4474 16.8253 11.4474 18.5874C11.4474 20.7395 9.77684 22.5 7.69737 22.5C5.61789 22.5 3.94737 20.7395 3.94737 18.5874C3.94737 16.8253 5.06526 15.3284 6.61184 14.8413V7.44237C6.61184 6.83053 7.09184 6.31579 7.69737 6.31579ZM7.69737 16.9271C6.83368 16.9271 6.11842 17.6621 6.11842 18.5874C6.11842 19.5126 6.83368 20.2484 7.69737 20.2484C8.56105 20.2484 9.27632 19.5126 9.27632 18.5874C9.27632 17.6621 8.56105 16.9271 7.69737 16.9271ZM20.4387 0.598421C20.6937 0.626052 20.9432 0.744474 21.1555 0.874737C21.4129 1.03263 21.6876 1.25368 21.9655 1.51263C22.5237 2.0321 23.1363 2.74816 23.7039 3.55737C24.8242 5.15447 25.8553 7.2379 25.8553 9C25.8553 12.0711 23.5468 14.6368 20.6147 14.7947L20.3289 14.8026C17.2626 14.8026 14.8026 12.1705 14.8026 9C14.8026 7.2379 15.8345 5.15447 16.9547 3.55816C17.5224 2.74816 18.1342 2.0321 18.6916 1.51263C18.9703 1.25368 19.2442 1.03342 19.5024 0.874737C19.7455 0.725526 20.0361 0.592105 20.3289 0.592105L20.4387 0.598421ZM20.2911 2.77974C20.1489 2.9021 19.9729 3.07105 19.7755 3.27868C19.299 3.7846 18.8592 4.32386 18.4595 4.89237C17.5429 6.19342 16.7818 7.72184 16.7818 9C16.7818 11.1039 18.3955 12.7745 20.3289 12.7753L20.5097 12.7697C22.3618 12.6695 23.8768 11.0384 23.8768 9C23.8768 7.72105 23.115 6.19342 22.1984 4.89237C21.7989 4.32388 21.3594 3.78461 20.8832 3.27868C20.7193 3.10433 20.5472 2.93783 20.3676 2.77974L20.3289 2.74816C20.3171 2.75763 20.3037 2.76789 20.2911 2.77974ZM20.8397 9.97026C21.5684 9.36237 22.3871 9.14368 22.6697 9.48079C22.9516 9.81947 22.5892 10.5861 21.8605 11.1939C21.1326 11.8018 20.3132 12.0213 20.0313 11.6834C19.7495 11.3455 20.1118 10.5782 20.8397 9.97026Z" fill="#13EC5B"/>
</svg>
