<svg width="25" height="25" viewBox="0 0 25 25" fill="none" xmlns="http://www.w3.org/2000/svg">
<path d="M12.5 25C10.7708 25 9.14583 24.6719 7.625 24.0156C6.10417 23.3594 4.78125 22.4688 3.65625 21.3438C2.53125 20.2188 1.64062 18.8958 0.984375 17.375C0.328125 15.8542 0 14.2292 0 12.5C0 10.75 0.328125 9.11979 0.984375 7.60938C1.64062 6.09896 2.53125 4.78125 3.65625 3.65625L5.40625 5.40625C4.48958 6.32292 3.77604 7.38542 3.26562 8.59375C2.75521 9.80208 2.5 11.1042 2.5 12.5C2.5 15.2917 3.46875 17.6562 5.40625 19.5938C7.34375 21.5312 9.70833 22.5 12.5 22.5C15.2917 22.5 17.6562 21.5312 19.5938 19.5938C21.5312 17.6562 22.5 15.2917 22.5 12.5C22.5 11.1042 22.2448 9.80208 21.7344 8.59375C21.224 7.38542 20.5104 6.32292 19.5938 5.40625L21.3438 3.65625C22.4688 4.78125 23.3594 6.09896 24.0156 7.60938C24.6719 9.11979 25 10.75 25 12.5C25 14.2292 24.6719 15.8542 24.0156 17.375C23.3594 18.8958 22.4688 20.2188 21.3438 21.3438C20.2188 22.4688 18.8958 23.3594 17.375 24.0156C15.8542 24.6719 14.2292 25 12.5 25ZM11.25 13.75V0H13.75V13.75H11.25Z" fill="#13EC5B"/>
</svg>
