<?xml version="1.0" standalone="no"?><!DOCTYPE svg PUBLIC "-//W3C//DTD SVG 1.1//EN" "http://www.w3.org/Graphics/SVG/1.1/DTD/svg11.dtd"><svg t="1775703551044" class="icon" viewBox="0 0 1024 1024" version="1.1" xmlns="http://www.w3.org/2000/svg" p-id="13565" xmlns:xlink="http://www.w3.org/1999/xlink" width="128" height="128"><path d="M883.8677901 398.57558482h-322.26435507v-120.0592695h0.6318909c24.95969026 0 66.66448912-5.05512717 102.36632454-33.80616274 38.22939899-30.64670828 59.08179842-78.98636156 62.24125292-143.75517802l1.57972719-28.75103555-28.43509015-2.21161814c-4.10729079-0.31594546-102.0503791-7.5826907-155.12921404 51.81505318-15.48132686 17.37699954-25.59158114 38.22939899-30.01481737 61.92530743-7.5826907-10.42619971-16.42916319-20.22050852-26.85536292-28.75103561-37.59750807-30.33076281-86.56905223-38.54534441-145.96679609-24.32779933l-24.95969029 6.00296347-2.84350899 25.59158112c-0.31594546 3.15945445-8.2145816 77.72257977 42.33668977 134.59276007 30.64670828 34.43805362 75.1950162 54.34261671 131.74925103 59.08179841v42.65263521H139.18437359v194.9383403h74.8790707L252.29284329 954.32362457H771.07526582l38.22939899-360.493754h74.87907075v-195.25428575zM588.45879796 161.30055478c18.32483587-20.53645401 50.55127136-28.75103558 75.82690706-31.59454459-5.68701803 30.64670828-18.00889044 53.71072586-36.33372629 68.56016179-18.64078133 15.16538144-40.75696255 19.58861766-56.55423488 20.85239949-0.94783635-24.32779936 4.73918172-43.60047157 17.06105411-57.81801669z m-176.61350439 86.88499771c-14.2175451-15.79727229-20.53645401-35.06994452-23.06401756-50.23532591 21.80023579-1.26378178 38.86128988 3.4753999 52.44694403 14.21754505 19.58861766 15.79727229 29.3829265 43.60047157 34.12210821 67.92827089-27.80319925-5.05512717-48.97154414-15.79727229-63.50503468-31.91049003z m398.40720758 224.32126674V518.31890891h-597.13689318v-45.81208968h597.13689318z m-105.84172444 407.88557098H318.64138697l-30.33076283-286.56251964h446.74686083l-30.64670826 286.56251964z" fill="" p-id="13566"></path></svg>