<svg width="18" height="21" viewBox="0 0 18 21" fill="none" xmlns="http://www.w3.org/2000/svg">
<path d="M7.8 21C7.33333 21 6.89583 20.9 6.4875 20.7C6.07917 20.5 5.73333 20.2167 5.45 19.85L0 12.925L0.475 12.425C0.808333 12.075 1.20833 11.8667 1.675 11.8C2.14167 11.7333 2.575 11.825 2.975 12.075L4.825 13.2V5C4.825 4.71667 4.92083 4.47917 5.1125 4.2875C5.30417 4.09583 5.54167 4 5.825 4C6.10833 4 6.35 4.09583 6.55 4.2875C6.75 4.47917 6.85 4.71667 6.85 5V16.8L4.425 15.3L7.025 18.625C7.125 18.7417 7.24167 18.8333 7.375 18.9C7.50833 18.9667 7.65 19 7.8 19H13.325C13.875 19 14.3458 18.8042 14.7375 18.4125C15.1292 18.0208 15.325 17.55 15.325 17V13C15.325 12.7167 15.2292 12.4792 15.0375 12.2875C14.8458 12.0958 14.6083 12 14.325 12H8.85V10H14.325C15.1583 10 15.8667 10.2917 16.45 10.875C17.0333 11.4583 17.325 12.1667 17.325 13V17C17.325 18.1 16.9333 19.0417 16.15 19.825C15.3667 20.6083 14.425 21 13.325 21H7.8ZM1.5 7.5C1.28333 7.13333 1.11667 6.7375 1 6.3125C0.883333 5.8875 0.825 5.45 0.825 5C0.825 3.61667 1.3125 2.4375 2.2875 1.4625C3.2625 0.4875 4.44167 0 5.825 0C7.20833 0 8.3875 0.4875 9.3625 1.4625C10.3375 2.4375 10.825 3.61667 10.825 5C10.825 5.45 10.7667 5.8875 10.65 6.3125C10.5333 6.7375 10.3667 7.13333 10.15 7.5L8.425 6.5C8.55833 6.26667 8.65833 6.02917 8.725 5.7875C8.79167 5.54583 8.825 5.28333 8.825 5C8.825 4.16667 8.53333 3.45833 7.95 2.875C7.36667 2.29167 6.65833 2 5.825 2C4.99167 2 4.28333 2.29167 3.7 2.875C3.11667 3.45833 2.825 4.16667 2.825 5C2.825 5.28333 2.85833 5.54583 2.925 5.7875C2.99167 6.02917 3.09167 6.26667 3.225 6.5L1.5 7.5Z" fill="#22C55E"/>
</svg>
