<svg width="30" height="30" viewBox="0 0 30 30" fill="none" xmlns="http://www.w3.org/2000/svg">
<path d="M7.52246 15.9287C7.00479 15.9287 6.58496 16.3485 6.58496 16.8662V20.6162C6.58496 21.1339 7.00479 21.5537 7.52246 21.5537C8.04014 21.5537 8.45996 21.1339 8.45996 20.6162V16.8662C8.45996 16.3482 8.04014 15.9287 7.52246 15.9287ZM11.2481 15.9287C10.7305 15.9287 10.3106 16.3485 10.3106 16.8662V20.6162C10.3106 21.1339 10.7305 21.5537 11.2481 21.5537C11.7658 21.5537 12.1856 21.1339 12.1856 20.6162V16.8662C12.1856 16.3482 11.7658 15.9287 11.2481 15.9287Z" fill="#13EC5B"/>
<path d="M19.8994 18.7412C19.8994 19.2385 20.097 19.7154 20.4486 20.067C20.8002 20.4187 21.2771 20.6162 21.7744 20.6162C22.2717 20.6162 22.7486 20.4187 23.1002 20.067C23.4519 19.7154 23.6494 19.2385 23.6494 18.7412C23.6494 18.2439 23.4519 17.767 23.1002 17.4154C22.7486 17.0638 22.2717 16.8662 21.7744 16.8662C21.2771 16.8662 20.8002 17.0638 20.4486 17.4154C20.097 17.767 19.8994 18.2439 19.8994 18.7412Z" fill="#13EC5B"/>
<path d="M26.6045 13.1162H3.40137C2.56143 13.1162 1.87793 13.7997 1.87793 14.6396V22.8428C1.87793 23.6827 2.56143 24.3662 3.40137 24.3662H5.62588V25.2908H11.2509V24.3662H18.7509V25.2908H24.3759V24.3662H26.6045C27.4444 24.3662 28.1279 23.6827 28.1279 22.8428V14.6396C28.1279 13.7994 27.4444 13.1162 26.6045 13.1162ZM26.2529 22.4912H3.75293V14.9912H26.2529V22.4912Z" fill="#13EC5B"/>
<path d="M14.3428 5.90449C13.0711 6.66328 12.0143 7.74551 11.2866 9.03457C11.0847 9.39228 11.211 9.84551 11.5684 10.0474C11.9259 10.2492 12.3794 10.1229 12.5812 9.76553C13.824 7.56387 16.1645 6.19629 18.6896 6.19629C21.2156 6.19629 23.5567 7.56475 24.7992 9.76729C25.0008 10.125 25.4543 10.2513 25.812 10.0494C26.0543 9.91289 26.1902 9.66094 26.1902 9.40137C26.1902 9.27773 26.1592 9.15234 26.0941 9.03691C25.3667 7.74727 24.3096 6.66416 23.0379 5.90508C21.7271 5.12285 20.2236 4.70947 18.6896 4.70947C17.1565 4.70947 15.6533 5.12256 14.3428 5.90449Z" fill="#13EC5B"/>
<path d="M18.6899 7.67969C17.0259 7.67969 15.4834 8.58086 14.6645 10.0313C14.4627 10.3891 14.5889 10.8423 14.9464 11.0441C15.3038 11.246 15.7573 11.1197 15.9592 10.7623C16.5146 9.77793 17.5611 9.1668 18.6896 9.1668C19.8187 9.1668 20.8652 9.77852 21.4207 10.7632C21.6225 11.1209 22.0758 11.2472 22.4335 11.0453C22.6758 10.9088 22.8117 10.6565 22.8117 10.3973C22.8117 10.2736 22.7806 10.1482 22.7156 10.0328C21.8973 8.58145 20.3546 7.67969 18.6899 7.67969Z" fill="#13EC5B"/>
</svg>
