<svg width="80" height="80" viewBox="0 0 80 80" fill="none" xmlns="http://www.w3.org/2000/svg">
<path d="M40.0004 74.517C59.0647 74.517 74.5175 59.0642 74.5175 40C74.5175 20.9357 59.0647 5.48291 40.0004 5.48291C20.9362 5.48291 5.4834 20.9357 5.4834 40C5.4834 59.0642 20.9362 74.517 40.0004 74.517ZM40.0004 69.4034C36.1391 69.4034 32.3156 68.6429 28.7482 67.1652C25.1808 65.6876 21.9394 63.5217 19.209 60.7914C16.4786 58.061 14.3128 54.8196 12.8351 51.2522C11.3574 47.6848 10.5969 43.8613 10.5969 40C10.5969 36.1386 11.3574 32.3151 12.8351 28.7477C14.3128 25.1803 16.4786 21.9389 19.209 19.2086C21.9394 16.4782 25.1808 14.3124 28.7482 12.8347C32.3156 11.3571 36.1391 10.5965 40.0004 10.5965C47.7987 10.5966 55.2775 13.6945 60.7917 19.2087C66.3059 24.7229 69.4037 32.2017 69.4037 40C69.4037 47.7982 66.3059 55.277 60.7917 60.7913C55.2775 66.3055 47.7987 69.4033 40.0004 69.4034Z" fill="#13EC5B"/>
<path d="M23.1251 52.4614C25.3412 54.6775 27.972 56.4353 30.8674 57.6347C33.7628 58.834 36.8661 59.4513 40.0001 59.4513C43.1341 59.4513 46.2374 58.834 49.1328 57.6347C52.0282 56.4353 54.6591 54.6775 56.8751 52.4614C57.3545 51.9816 57.6236 51.3311 57.6233 50.6529C57.623 49.9747 57.3533 49.3244 56.8735 48.8451C56.3938 48.3657 55.7432 48.0966 55.065 48.0969C54.3869 48.0972 53.7366 48.3669 53.2572 48.8467C49.7409 52.362 44.9723 54.3368 40.0001 54.3368C35.028 54.3368 30.2594 52.362 26.743 48.8467C26.2637 48.3669 25.6134 48.0972 24.9352 48.0969C24.257 48.0966 23.6065 48.3657 23.1267 48.8451C22.6469 49.3244 22.3773 49.9747 22.377 50.6529C22.3767 51.3311 22.6458 51.9816 23.1251 52.4614Z" fill="#13EC5B"/>
<path d="M24.0195 33.3427C24.0195 34.4022 24.4404 35.4184 25.1896 36.1676C25.9389 36.9168 26.955 37.3377 28.0146 37.3377C29.0741 37.3377 30.0903 36.9168 30.8395 36.1676C31.5887 35.4184 32.0096 34.4022 32.0096 33.3427C32.0096 32.2831 31.5887 31.267 30.8395 30.5178C30.0903 29.7686 29.0741 29.3477 28.0146 29.3477C26.955 29.3477 25.9389 29.7686 25.1896 30.5178C24.4404 31.267 24.0195 32.2831 24.0195 33.3427Z" fill="#13EC5B"/>
<path d="M47.9902 33.3427C47.9902 34.4022 48.4111 35.4184 49.1604 36.1676C49.9096 36.9168 50.9257 37.3377 51.9853 37.3377C53.0448 37.3377 54.061 36.9168 54.8102 36.1676C55.5594 35.4184 55.9803 34.4022 55.9803 33.3427C55.9803 32.2831 55.5594 31.267 54.8102 30.5178C54.061 29.7686 53.0448 29.3477 51.9853 29.3477C50.9257 29.3477 49.9096 29.7686 49.1604 30.5178C48.4111 31.267 47.9902 32.2831 47.9902 33.3427Z" fill="#13EC5B"/>
</svg>
