<svg width="13" height="13" viewBox="0 0 13 13" fill="none" xmlns="http://www.w3.org/2000/svg">
<path d="M6.41667 8.16667C6.90278 8.16667 7.31597 7.99653 7.65625 7.65625C7.99653 7.31597 8.16667 6.90278 8.16667 6.41667C8.16667 5.93056 7.99653 5.51736 7.65625 5.17708C7.31597 4.83681 6.90278 4.66667 6.41667 4.66667C5.93056 4.66667 5.51736 4.83681 5.17708 5.17708C4.83681 5.51736 4.66667 5.93056 4.66667 6.41667C4.66667 6.90278 4.83681 7.31597 5.17708 7.65625C5.51736 7.99653 5.93056 8.16667 6.41667 8.16667ZM6.41667 9.33333C5.60972 9.33333 4.92188 9.04896 4.35313 8.48021C3.78438 7.91146 3.5 7.22361 3.5 6.41667C3.5 5.60972 3.78438 4.92188 4.35313 4.35313C4.92188 3.78438 5.60972 3.5 6.41667 3.5C7.22361 3.5 7.91146 3.78438 8.48021 4.35313C9.04896 4.92188 9.33333 5.60972 9.33333 6.41667C9.33333 7.22361 9.04896 7.91146 8.48021 8.48021C7.91146 9.04896 7.22361 9.33333 6.41667 9.33333ZM2.33333 7H0V5.83333H2.33333V7ZM12.8333 7H10.5V5.83333H12.8333V7ZM5.83333 2.33333V0H7V2.33333H5.83333ZM5.83333 12.8333V10.5H7V12.8333H5.83333ZM3.15 3.9375L1.67708 2.52292L2.50833 1.6625L3.90833 3.12083L3.15 3.9375ZM10.325 11.1708L8.91042 9.69792L9.68333 8.89583L11.1562 10.3104L10.325 11.1708ZM8.89583 3.15L10.3104 1.67708L11.1708 2.50833L9.7125 3.90833L8.89583 3.15ZM1.6625 10.325L3.13542 8.91042L3.9375 9.68333L2.52292 11.1562L1.6625 10.325Z" fill="#FBBF24"/>
</svg>
