<svg width="11" height="11" viewBox="0 0 11 11" fill="none" xmlns="http://www.w3.org/2000/svg">
<path d="M5.83333 4.66667V3.5H8.75V4.66667H5.83333ZM5.83333 2.33333V1.16667H10.5V2.33333H5.83333ZM2.91667 10.5C2.10972 10.5 1.42188 10.2156 0.853125 9.64688C0.284375 9.07812 0 8.39028 0 7.58333C0 7.11667 0.102083 6.6816 0.30625 6.27812C0.510417 5.87465 0.797222 5.53194 1.16667 5.25V1.75C1.16667 1.26389 1.33681 0.850694 1.67708 0.510417C2.01736 0.170139 2.43056 0 2.91667 0C3.40278 0 3.81597 0.170139 4.15625 0.510417C4.49653 0.850694 4.66667 1.26389 4.66667 1.75V5.25C5.03611 5.53194 5.32292 5.87465 5.52708 6.27812C5.73125 6.6816 5.83333 7.11667 5.83333 7.58333C5.83333 8.39028 5.54896 9.07812 4.98021 9.64688C4.41146 10.2156 3.72361 10.5 2.91667 10.5ZM1.16667 7.58333H4.66667C4.66667 7.30139 4.6059 7.03889 4.48438 6.79583C4.36285 6.55278 4.19028 6.34861 3.96667 6.18333L3.5 5.83333V1.75C3.5 1.58472 3.4441 1.44618 3.33229 1.33438C3.22049 1.22257 3.08194 1.16667 2.91667 1.16667C2.75139 1.16667 2.61285 1.22257 2.50104 1.33438C2.38924 1.44618 2.33333 1.58472 2.33333 1.75V5.83333L1.86667 6.18333C1.64306 6.34861 1.47049 6.55278 1.34896 6.79583C1.22743 7.03889 1.16667 7.30139 1.16667 7.58333Z" fill="#13EC5B"/>
</svg>
