<svg width="23" height="23" viewBox="0 0 23 23" fill="none" xmlns="http://www.w3.org/2000/svg">
<path d="M19.4349 19.4732H3.56493C3.0666 19.4732 2.68327 19.8566 2.68327 20.3166C2.68327 20.7766 3.0666 21.1599 3.5266 21.1599H19.3966C19.8566 21.1599 20.2399 20.7766 20.2399 20.3166C20.3166 19.8566 19.9333 19.4732 19.4349 19.4732ZM19.6649 1.22656H3.33493C1.9166 1.22656 0.766602 2.37656 0.766602 3.7949V14.1066C0.766602 15.5249 1.9166 16.6749 3.33493 16.6749H19.6649C21.0833 16.6749 22.2333 15.5249 22.2333 14.1066V3.7949C22.2333 2.37656 21.0833 1.22656 19.6649 1.22656ZM20.5083 14.1066C20.5083 14.5666 20.1249 14.9499 19.6649 14.9499H3.33493C2.87493 14.9499 2.4916 14.5666 2.4916 14.1066V10.6566H20.5083V14.1066ZM20.5083 6.82323H2.4916V3.7949C2.4916 3.3349 2.87493 2.95156 3.33493 2.95156H19.6649C20.1249 2.95156 20.5083 3.3349 20.5083 3.7949V6.82323Z" fill="#13EC5B"/>
<path opacity="0.13" d="M20.8536 5.40503V5.09836H16.5603V2.53003H16.1003V5.09836H11.807V2.53003H11.3853V5.09836H7.09195V2.53003H6.67029V5.09836H2.37695V5.40503H6.67029V8.5867H2.37695V8.89336H6.67029V12.075H2.37695V12.3817H6.67029V15.8317H7.09195V12.3817H11.3853V15.8317H11.807V12.3817H16.1003V15.8317H16.522V12.3817H20.8153V12.075H16.5603V8.89336H20.8536V8.5867H16.5603V5.40503H20.8536ZM7.09195 5.40503H11.3853V8.5867H7.09195V5.40503ZM7.09195 12.075V8.89336H11.3853V12.075H7.09195ZM16.1003 12.075H11.807V8.89336H16.1003V12.075ZM16.1003 8.5867H11.807V5.40503H16.1003V8.5867Z" fill="#13EC5B"/>
</svg>
