<svg width="16" height="19" viewBox="0 0 16 19" fill="none" xmlns="http://www.w3.org/2000/svg">
<path d="M8 19C5.78333 19 3.89583 18.2333 2.3375 16.7C0.779167 15.1667 0 13.3 0 11.1C0 10.05 0.204167 9.04583 0.6125 8.0875C1.02083 7.12917 1.6 6.28333 2.35 5.55L8 0L13.65 5.55C14.4 6.28333 14.9792 7.12917 15.3875 8.0875C15.7958 9.04583 16 10.05 16 11.1C16 13.3 15.2208 15.1667 13.6625 16.7C12.1042 18.2333 10.2167 19 8 19ZM2 11.1H14C14 10.3167 13.85 9.57083 13.55 8.8625C13.25 8.15417 12.8167 7.53333 12.25 7L8 2.8L3.75 7C3.18333 7.53333 2.75 8.15417 2.45 8.8625C2.15 9.57083 2 10.3167 2 11.1Z" fill="#2563EB"/>
</svg>
